<?xml version="1.0" standalone="no"?>
<!DOCTYPE svg PUBLIC "-//W3C//DTD SVG 20010904//EN"
 "http://www.w3.org/TR/2001/REC-SVG-20010904/DTD/svg10.dtd">
<svg version="1.0" xmlns="http://www.w3.org/2000/svg"
 width="160.000000pt" height="160.000000pt" viewBox="0 0 160.000000 160.000000"
 preserveAspectRatio="xMidYMid meet">
<metadata>
Created by potrace 1.11, written by Peter Selinger 2001-2013
</metadata>
<g transform="translate(0.000000,160.000000) scale(0.100000,-0.100000)"
fill="#000000" stroke="none">
<path d="M557 1501 c-8 -36 -30 -63 -71 -85 l-29 -15 36 -15 c23 -9 47 -32 69
-65 37 -57 48 -63 48 -26 0 42 22 76 64 97 l40 21 -39 15 c-37 14 -48 25 -96
85 -15 20 -16 20 -22 -12z"/>
<path d="M440 1291 c0 -11 -11 -28 -25 -39 l-25 -20 31 -12 c16 -7 34 -21 40
-32 12 -22 29 -15 29 13 0 10 9 24 20 31 25 16 26 28 2 28 -22 0 -65 34 -55
44 3 3 1 6 -5 6 -7 0 -12 -9 -12 -19z"/>
<path d="M788 1295 c-2 -2 -15 -6 -28 -9 -14 -2 -34 -8 -46 -13 -36 -14 -144
-97 -150 -115 -3 -10 -10 -18 -15 -18 -8 0 -23 -27 -34 -60 -1 -3 -7 -18 -14
-35 -7 -16 -14 -62 -16 -102 -3 -85 17 -153 65 -220 37 -52 38 -52 -69 -9 -52
20 -55 23 -68 71 -7 28 -15 61 -18 75 -2 14 -9 41 -15 60 -5 19 -10 36 -10 38
0 1 11 0 24 -2 34 -6 36 0 21 50 -12 40 -11 46 6 68 33 42 26 57 -25 51 -40
-5 -45 -3 -70 30 -15 19 -31 35 -36 35 -5 0 -17 -22 -27 -50 -14 -41 -24 -52
-50 -61 -47 -15 -47 -23 -5 -51 29 -20 38 -33 40 -59 4 -45 15 -54 45 -35 l24
17 23 -88 c31 -125 31 -123 35 -180 2 -28 13 -70 25 -93 14 -28 17 -41 8 -37
-7 2 -25 -2 -39 -10 -63 -37 -86 -199 -40 -280 29 -50 71 -83 113 -88 26 -3
37 2 63 31 17 18 37 34 43 34 15 0 45 -57 37 -70 -8 -12 11 -48 43 -82 34 -36
111 -61 167 -55 55 7 80 20 117 63 34 38 54 42 101 18 51 -27 92 -28 142 -4
42 20 84 65 89 93 1 7 4 17 7 22 3 6 7 30 8 55 2 25 7 52 11 61 14 25 85 70
122 76 18 3 34 6 36 8 6 6 -54 57 -88 75 -37 19 -105 19 -141 0 -15 -9 -19 -7
-17 7 5 66 -20 86 -101 84 l-56 -1 41 20 c37 19 94 70 94 86 0 3 6 12 14 20
35 35 60 127 60 221 -1 82 -4 98 -32 155 -40 82 -91 133 -170 171 -53 25 -79
30 -152 33 -48 1 -90 1 -92 -1z m326 -770 c3 -8 3 -15 0 -15 -3 0 -12 7 -20
15 -13 13 -13 15 -1 15 8 0 17 -7 21 -15z"/>
<path d="M142 973 c-18 -37 2 -103 31 -103 5 0 2 9 -8 20 -12 13 -16 31 -13
60 4 45 3 48 -10 23z"/>
<path d="M187 963 c-8 -15 13 -71 28 -77 8 -3 15 -1 15 4 0 6 -4 10 -9 10 -9
0 -26 48 -23 63 1 4 0 7 -2 7 -3 0 -7 -3 -9 -7z"/>
<path d="M1375 861 c-7 -23 -50 -57 -79 -62 -19 -4 -19 -5 -2 -21 15 -15 21
-44 25 -123 1 -5 18 8 39 28 22 21 49 39 60 40 26 2 26 1 5 33 -9 15 -18 44
-19 66 -2 48 -19 70 -29 39z"/>
<path d="M1396 654 c-4 -12 -20 -27 -37 -34 -28 -12 -29 -14 -13 -31 9 -10 17
-31 17 -46 l0 -27 21 27 c12 15 29 27 38 27 17 0 16 8 -12 85 -7 20 -7 20 -14
-1z"/>
</g>
</svg>
